<svg width="32" height="32" viewBox="0 0 32 32" fill="none" xmlns="http://www.w3.org/2000/svg">
<path d="M12 10.667L6.02133 21.3337H2.66667V13.3337C2.64533 12.071 2.29867 11.487 1.33333 10.667H5.33333V17.3337L9.33333 10.667H12ZM13.312 10.667L9.34267 21.3337H12L16 10.667H13.312ZM28.6667 21.3337L28.708 19.2097L25.6667 19.167L24.604 21.3337H22.3227L28 10.667H30.6667L31.396 21.3337H28.6667ZM28.6667 13.375L26.6667 17.3337H28.6453L28.6667 13.375ZM19.444 12.9723C20.2453 10.971 22.6667 12.9177 23 13.1123C23.2773 12.6963 23.7507 12.0297 24 11.6683C23.056 10.5843 19.2427 9.52833 17.3053 11.919C14 16.003 20.8053 17.1977 19.6107 18.835C18.8413 19.8897 16.7773 19.723 15.2773 18.723C15.0547 19.1403 14.36 20.3897 14.36 20.3897C15.5827 21.1977 16.4987 21.335 17.7773 21.335C19.056 21.335 21.5907 21.1337 22.3227 18.6403C23.3893 15.0003 18.556 15.195 19.444 12.9723ZM0 6.66699H32V8.00033H0V6.66699ZM0 24.0003H32V25.3337H0V24.0003Z" fill="black"/>
</svg>
