<svg width="32" height="32" viewBox="0 0 32 32" fill="none" xmlns="http://www.w3.org/2000/svg">
<path d="M11.9999 16.0002C11.9989 15.8248 12.0325 15.6508 12.0989 15.4884C12.1652 15.3259 12.263 15.1782 12.3866 15.0536L17.7199 9.72025C17.971 9.46918 18.3115 9.32812 18.6666 9.32812C19.0217 9.32812 19.3622 9.46918 19.6132 9.72025C19.8643 9.97132 20.0054 10.3118 20.0054 10.6669C20.0054 11.022 19.8643 11.3625 19.6132 11.6136L15.2132 16.0002L19.5999 20.3869C19.8184 20.642 19.9325 20.9701 19.9195 21.3057C19.9066 21.6412 19.7675 21.9595 19.53 22.197C19.2925 22.4345 18.9742 22.5736 18.6387 22.5865C18.3031 22.5995 17.975 22.4853 17.7199 22.2669L12.3866 16.9336C12.1403 16.6852 12.0014 16.35 11.9999 16.0002Z" fill="#F0A500"/>
</svg>
