<svg width="32" height="32" viewBox="0 0 32 32" fill="none" xmlns="http://www.w3.org/2000/svg">
<path d="M20.353 7.03223C18.8246 7.03162 17.3218 7.42422 15.989 8.17229C14.6238 7.40924 13.0828 7.01639 11.5189 7.03273C9.95504 7.04907 8.42259 7.47401 7.07362 8.26542C5.72465 9.05682 4.60604 10.1872 3.82877 11.5443C3.0515 12.9015 2.64258 14.4383 2.64258 16.0023C2.64258 17.5663 3.0515 19.1031 3.82877 20.4602C4.60604 21.8174 5.72465 22.9478 7.07362 23.7392C8.42259 24.5306 9.95504 24.9555 11.5189 24.9719C13.0828 24.9882 14.6238 24.5953 15.989 23.8323C17.1856 24.4993 18.519 24.8832 19.887 24.9548C21.255 25.0263 22.6212 24.7834 23.8807 24.2448C25.1403 23.7063 26.2597 22.8863 27.1531 21.8478C28.0465 20.8094 28.6901 19.58 29.0345 18.2542C29.3789 16.9283 29.4149 15.5412 29.1399 14.1992C28.8648 12.8572 28.286 11.5961 27.4478 10.5126C26.6096 9.42912 25.5343 8.55208 24.3044 7.94878C23.0746 7.34548 21.7228 7.03196 20.353 7.03229V7.03223ZM13.6496 21.9423C12.9996 22.1749 12.3154 22.2977 11.6251 22.3057C9.95335 22.3057 8.35005 21.6416 7.16794 20.4595C5.98583 19.2774 5.32172 17.6741 5.32172 16.0023C5.32172 14.3306 5.98583 12.7273 7.16794 11.5452C8.35005 10.363 9.95335 9.69893 11.6251 9.69893C12.3154 9.70691 12.9996 9.82972 13.6496 10.0623C12.1898 11.6965 11.3829 13.8111 11.3829 16.0023C11.3829 18.1936 12.1898 20.3081 13.6496 21.9423V21.9423ZM15.989 20.5325C15.3761 19.9478 14.8882 19.2449 14.5548 18.4662C14.2215 17.6876 14.0496 16.8493 14.0496 16.0023C14.0496 15.1552 14.2215 14.317 14.5548 13.5383C14.8882 12.7597 15.3761 12.0567 15.989 11.4721C16.602 12.0567 17.0899 12.7597 17.4232 13.5383C17.7566 14.317 17.9285 15.1552 17.9285 16.0023C17.9285 16.8493 17.7566 17.6876 17.4232 18.4662C17.0899 19.2449 16.602 19.9478 15.989 20.5325ZM20.353 22.3057C19.6627 22.2977 18.9785 22.1749 18.3285 21.9423C19.7883 20.3081 20.5951 18.1936 20.5951 16.0023C20.5951 13.8111 19.7883 11.6965 18.3285 10.0623C18.9785 9.82972 19.6627 9.70691 20.353 9.69893C22.0247 9.69893 23.628 10.363 24.8101 11.5452C25.9923 12.7273 26.6564 14.3306 26.6564 16.0023C26.6564 17.6741 25.9923 19.2774 24.8101 20.4595C23.628 21.6416 22.0247 22.3057 20.353 22.3057V22.3057Z" fill="black"/>
</svg>
