<svg width="32" height="32" viewBox="0 0 32 32" fill="none" xmlns="http://www.w3.org/2000/svg">
<path d="M27.2493 9.47233C27.0191 9.21422 26.7632 8.98021 26.4856 8.77393C26.5996 7.88073 26.5208 6.97348 26.2545 6.11331C25.9882 5.25313 25.5407 4.46003 24.942 3.78743C23.4967 2.15853 21.0332 1.33301 17.6191 1.33301H9.33396C8.7354 1.3346 8.1569 1.54894 7.7018 1.93773C7.2467 2.32652 6.94465 2.86444 6.84958 3.45541L3.39645 25.3304C3.3476 25.6236 3.36327 25.9239 3.44239 26.2105C3.5215 26.497 3.66216 26.7628 3.85454 26.9894C4.04692 27.216 4.2864 27.3979 4.5563 27.5225C4.82619 27.647 5.12 27.7112 5.41725 27.7106H8.96937L8.86004 28.4046C8.81582 28.6838 8.83265 28.9692 8.90934 29.2413C8.98604 29.5133 9.12079 29.7655 9.30431 29.9805C9.48784 30.1954 9.71577 30.368 9.97242 30.4864C10.2291 30.6049 10.5083 30.6662 10.791 30.6663H15.1035C15.6621 30.6708 16.2041 30.476 16.632 30.1168C17.0599 29.7576 17.3457 29.2577 17.4382 28.7067L18.2923 23.3317L18.3067 23.2588H18.7051C24.0814 23.2588 27.4395 20.6012 28.4186 15.5752C28.7173 14.5377 28.7671 13.4443 28.564 12.3839C28.3608 11.3235 27.9104 10.326 27.2493 9.47233ZM10.4564 18.2718L9.50372 24.3188L9.38864 25.0439H6.14125L9.46286 3.99967H17.6191C20.1998 3.99967 22.0423 4.53874 22.942 5.55175C23.3667 6.04555 23.6629 6.63657 23.8043 7.27234C23.9457 7.90811 23.9279 8.56896 23.7526 9.19621L23.7278 9.34586C23.7116 9.44783 23.6968 9.54745 23.6699 9.67415C23.4128 11.5794 22.4606 13.3224 20.9964 14.5682C19.3526 15.7113 17.3715 16.267 15.373 16.1455H12.942C12.3417 16.1435 11.7607 16.357 11.3045 16.7473C10.8483 17.1375 10.5474 17.6784 10.4564 18.2718ZM25.8014 15.0648C25.067 18.8356 22.8118 20.5921 18.705 20.5921H18.0605C17.5013 20.5878 16.9589 20.7832 16.5309 21.1431C16.1029 21.5031 15.8174 22.004 15.7259 22.5557L14.86 27.988L11.623 27.9997L12.2606 23.9545L13.0754 18.8174H15.3678C15.5769 18.8174 15.7617 18.786 15.9653 18.7788C16.4437 18.7623 16.9208 18.7439 17.3689 18.6883C17.6425 18.6542 17.8937 18.592 18.156 18.5434C18.5193 18.4762 18.8829 18.4098 19.2241 18.315C19.4779 18.2444 19.7148 18.1534 19.9562 18.0675C20.2752 17.9543 20.5893 17.8355 20.8863 17.696C21.1103 17.5905 21.3237 17.4732 21.535 17.3529C21.8164 17.1936 22.0889 17.0192 22.3515 16.8306C22.5412 16.6938 22.7274 16.5535 22.9049 16.4026C23.1564 16.1858 23.3955 15.9548 23.6208 15.7108C23.7714 15.55 23.9257 15.394 24.0652 15.2211C24.2966 14.9262 24.5103 14.6178 24.7052 14.2976C24.8072 14.1347 24.9202 13.9839 25.014 13.8125C25.2841 13.3183 25.5162 12.8042 25.7084 12.2748C25.7199 12.243 25.7364 12.2161 25.7477 12.1841C25.7531 12.1692 25.7609 12.1567 25.7662 12.1416C26.0304 13.0966 26.0425 14.1037 25.8014 15.0648Z" fill="black"/>
</svg>
